<?xml version="1.0" encoding="UTF-8"?>
<svg id="Layer_1" data-name="Layer 1" xmlns="http://www.w3.org/2000/svg" viewBox="0 0 364.89 326.08">
  <defs>
    <style>
      .cls-1 {
        fill: #fff;
      }

      .cls-2 {
        fill: #f3f3f4;
      }

      .cls-3 {
        fill: #292925;
      }

      .cls-4 {
        fill: #3f95e2;
      }

      .cls-5 {
        fill: #16ab39;
      }

      .cls-6 {
        fill: #f7a80a;
      }

      .cls-7 {
        fill: #fcfcfc;
      }
    </style>
  </defs>
  <path class="cls-7" d="M93.7,92.17c0-1.18,.01-2.36,.02-3.53,.08-9.12,.37-18.24,.12-27.35-.08-2.75-.06-6.15-3.12-7.94-5.15-3.02-12.57-1.85-16.91,2.64-4.37,.3-7.84,2.96-11.7,4.61-5.9,2.52-12.01,4.5-17.66,7.63-2.02,.81-4.06,1.57-6.05,2.43-4.5,1.93-9.02,3.79-13.29,6.25-1.56,.9-2.04,1.93-2.01,3.71,.11,8.12,.06,16.25,.08,24.37,0,3.82,.04,3.82,3.54,2.02,3.52-1.81,7.2-3.16,11.04-4.07,.03,1.68,1.55,2.92,1.36,4.67-4.41,2.28-9.35,2.99-13.9,4.87-1.42,.59-2.09,1.01-2.07,2.68,.09,7.34,.1,14.69,0,22.03-.03,2.04,.6,2.41,2.49,2.1,6.12-.98,12.23-2.12,18.47-2.04l-.05,.16s-.02-.15-.02-.15c.41-.11,.81-.23,1.2-.34,1.87,.79,3.85,.24,5.76,.54,1.89,1.01,3.73,1.16,5.92,.66,2.82-.64,5.75-.88,8.7-.96,2.98-.08,3.31,1.09,2.43,3.47-1.95,.16-3.91,.29-5.86,.5-5.68,.61-11.47,.03-17.05,1.63-6.51,.43-13.01,.91-19.53,1.26-1.84,.1-2.42,.88-2.4,2.68,.06,7.77,.08,15.53-.02,23.3-.02,1.85,.64,2.17,2.26,2.19,6.53,.08,13.06,.3,19.59,.47,.44,.48,.98,.72,1.63,.69,1.12,.39,2.18,.9,3.43,.94,12.28,.37,24.55,.88,36.83,1.19,7.61,.19,7.61,.06,6.81-7.99,.58-9.11,0-18.22,.02-27.33-.02-1.33-.04-2.65-.05-3.98-.03-.81-.05-1.62-.08-2.43,.44-1.9,.37-3.81,.15-5.72,.49-10.1,.2-20.21,.15-30.31,.59-1.82,.78-3.62-.21-5.37,0,0,.01-.18,.01-.18Z"/>
  <path class="cls-7" d="M93.82,211.21c-.04-2.07-.08-4.14-.13-6.21,.71-7.65,.11-15.31,.3-22.96,.02-.96-.14-1.86-1.36-1.81-6.29,.26-12.57-1.01-18.86-.14-9.57-.36-19.15-.72-28.72-1.08-6.51-.42-13.02-.85-19.53-1.24-1.16-.07-2.41-.42-2.38,1.63,.08,7.54,.04,15.08,.02,22.62,0,.99,.14,1.66,1.34,1.81,6.86,.88,13.48,3.19,20.44,3.52,4.88,.42,9.8,.64,14.65,1.34,4.72,.68,9.57,.12,14.18,1.68,.16,.27,.31,.75,.49,.77,6.1,.47,12.21,.9,18.32,1.3,.79,.05,1.69,.08,1.26-1.22Z"/>
  <path class="cls-7" d="M46.09,243.29c4.52,1.13,9.02,2.38,13.58,3.36,6.29,1.35,12.42,3.34,18.68,4.81,3.45,.81,7.09,.29,10.66,.89,4.27,.72,4.7,.06,4.84-4.45,.03-.98-.04-1.97-.06-2.95,.57-8.01-.17-16.03,.06-24.04,.06-2.06-1.11-2.92-2.73-3.06-5.76-.47-11.46-1.64-17.27-1.5-.72-.24-1.43-.62-2.17-.69-8.87-.87-17.74-1.7-26.61-2.53-6.56-1.32-13.22-2.17-19.64-4.11-2.3-.69-2.48,.33-2.45,2.24,.12,6.21,.11,12.43,.16,18.64,.05,6.97-.01,7.18,6.41,9.46,4.99,1.78,9.92,4.01,15.39,3.94l1.16-.02Z"/>
  <path class="cls-7" d="M44.84,249.46c-6.56-2.04-13.11-4.07-19.66-6.12-1.22-.38-2.28-.85-2.37,1.27-.32,7.44,.53,14.82,1.1,22.21,.16,2.11,1.34,4.17,3.15,5.28,5.76,3.51,11.35,7.38,17.76,9.67,.71,.49,1.37,1.17,2.15,1.44,9.18,3.22,17.5,8.46,26.68,11.68,.68,.87,1.36,1.98,2.62,1.64,5.13-1.4,10.59-1.53,15.32-4.57,1.61-1.04,2.28-1.92,2.27-3.82-.04-8.23,.07-16.46,.12-24.69,.03-4.59-.43-5.06-4.87-5.51-5.04-.51-10.08-1.09-15.12-1.64-.57-.45-.93-1.04-1.81-1.22-8.07-1.73-16.13-3.54-24.17-5.41-1.07-.25-2.07-.68-3.16-.19Z"/>
  <path class="cls-7" d="M138.48,269.08c-9.44-2.08-18.89-4.14-28.33-6.24-2.39-.53-1.52,1.33-1.53,2.24-.06,9.45,.18,18.91-.15,28.35-.13,3.67,1.35,5.09,4.4,5.92,8.51,2.32,17,4.72,25.5,7.09,13.43,4.11,27.08,7.36,40.77,10.46,2.94,1.66,5.86,.91,8.87,.11,12-3.19,24.01-6.36,36.05-9.36,9.83-2.45,19.49-5.52,29.22-8.35,1.99-.58,2.9-1.8,2.87-4.14-.13-9.79-.09-19.58-.02-29.37,.02-2.12-.29-2.95-2.74-2.49-12.93,2.45-25.63,6.03-38.65,8.1-11.79,1.87-23.51,4.13-35.5,4.24-6.25-.81-12.52-1.46-18.74-2.47-7.37-1.2-14.68-2.72-22.02-4.1Z"/>
  <path class="cls-3" d="M179.24,275.65c11.98-.11,23.71-2.37,35.5-4.24,13.02-2.07,25.72-5.65,38.65-8.1,2.45-.46,2.76,.37,2.74,2.49-.07,9.79-.12,19.58,.02,29.37,.03,2.34-.88,3.56-2.87,4.14-9.73,2.83-19.38,5.9-29.22,8.35-12.05,3-24.05,6.17-36.05,9.36-3.01,.8-5.93,1.55-8.87-.11,.03-13.75,.07-27.51,.1-41.26Z"/>
  <path class="cls-3" d="M178.35,1.99c.14-1.57,.55-2.42,2.46-1.78,13.95,4.68,28.21,8.32,42.11,13.21,8.34,2.94,16.57,6.1,24.72,9.53,2.91,1.22,5.28,3.05,7.42,5.32,.8,.85,1.21,1.76,1.2,2.97-.02,8.68,0,17.36,0,26.04,0,.79,.02,1.6-1,1.8-2.85-1.19-5.63-2.66-8.58-3.52-13.05-3.8-26.38-6.4-39.62-9.35-9.51-2.12-19.24-3.15-28.62-5.91-.03-12.77-.06-25.55-.09-38.32Z"/>
  <path class="cls-3" d="M253.95,65.04c1.55,.4,2.34,1.23,2.32,3.04-.08,9.23-.09,18.47-.01,27.7,.02,2.3-.82,2.5-2.8,2.09-3.08-.64-6.24-.89-9.36-1.31-.66-.04-1.32-.09-1.97-.13-9.45-1.97-18.9-3.91-28.37-5.74-7.81-1.51-15.67-2.08-23.53-2.9-1.82-.06-3.65-.01-5.45-.21-2.17-.23-4.53,.87-6.48-.94,.65-.6,.57-1.41,.57-2.17-.05-12.87-.11-25.74-.17-38.61,7.57,1.35,15.12,2.8,22.55,4.83,9.85,2.68,19.93,4.46,29.7,7.48,7.64,2.37,15.33,4.59,23,6.87Z"/>
  <path class="cls-3" d="M256.25,113.84c-.06,6.33-.23,12.67-.13,19,.04,2.42-.78,3.05-3.01,2.92-13.06-.75-26.11-1.6-39.14-2.83-1.29-.12-2.62,.05-3.93,.09-1.2-1.85-2.78-2.75-5.06-3.09-7.46-1.11-14.96-1.21-22.46-1.35-1.29-.02-2.94,.71-3.69-1.18,.55-11.41-.01-22.82-.12-34.23,1.15-.73,2.28-.19,3.45-.03,2.67,.38,5.33,.98,8.05,.68,1.04,.6,2.16,.51,3.28,.4,.83,.54,1.72,.63,2.66,.36,11.24,2.44,22.8,2.88,34,5.56,5.46,1.31,10.97,2.41,16.54,3.14,2.88,1.49,6.12,1.33,9.17,2.03,.13,1.73,.26,3.46,.39,5.19,0,.68,0,1.36,0,2.04,0,.44,0,.88,0,1.32Z"/>
  <path class="cls-3" d="M179.7,138.23c6.19,.31,12.36,.72,18.56,.94,16.26,.58,32.51,1.68,48.76,2.59,.97,.05,1.92,.41,2.89,.49q6.29,.54,6.29,7.05c-.01,7.45-.19,14.91-.01,22.35,.07,2.87-.91,3.4-3.51,3.44-13.52,.25-27.04,.72-40.56,1.13-.86,.03-1.72,.27-2.58,.41-.07-1-.31-2.02-.17-2.98,.45-3.06-.75-3.97-3.75-4.01-8.69-.11-17.4-.24-26.04-1.36-.09-9.91-.18-19.82-.27-29.74,.18-.06,.31-.16,.41-.32Z"/>
  <path class="cls-3" d="M254.59,222.04c1.49-.26,1.52,.71,1.52,1.8-.02,10.02-.08,20.03,.03,30.05,.02,2.18-1.36,2.28-2.68,2.55-11.08,2.25-22.18,4.46-33.27,6.68-2.76,.55-5.52,1.12-8.28,1.68-.32-.19-.63-.38-.95-.57,1.57-2.59,1.33-5.63,.43-8.01-.74-1.96-3.51-.62-5.4-.57-8.74,.21-17.44,1.3-26.2,1.01-.44-9.28-.22-18.57-.13-27.86,14.78-.83,29.64,.03,44.35-2.32,10.17-1.62,20.38-2.98,30.58-4.45Z"/>
  <path class="cls-3" d="M179.83,183.84c21.16-.56,42.32-1.1,63.48-1.68,3.27-.09,6.55-.16,9.79-.56,2.63-.32,3.25,.74,3.01,3.13-.13,1.31,.08,2.65,.13,3.98,0,7.39,.01,14.79,0,22.18,0,1.21-.13,2.41-.2,3.62-3.97,.55-7.93,1.23-11.92,1.63-11,1.1-21.8,3.99-32.94,3.81-.03-1.11-.09-2.22-.1-3.34-.03-5.71-.03-5.65-5.81-5.72-8.52-.1-17.05,.45-25.57-.12,.04-8.98,.08-17.96,.12-26.93Z"/>
  <path class="cls-3" d="M270.95,89.78c-.09-11.13-.14-22.26-.3-33.39-.03-1.73,.62-2.35,2.16-2.6,2.48-.4,4.93-.97,7.2-2.14,1.09-.56,2.09-.22,3.12,.3,14.68,7.41,30.02,13.29,45.05,19.89,3.19,1.4,6.68,2.04,9.57,4.22,1.26,.95,1.96,1.87,1.95,3.53-.05,7.9,0,15.81,0,23.71,0,.9,.1,1.82-1,2.19-14.09-2.8-27.63-8.13-42.02-9.57,.55-1.91-1.07-1.97-2.07-2.23-6.68-1.73-13.38-3.42-20.12-4.92-1.08-.24-2.96-1.4-3.55,1.01Z"/>
  <path class="cls-3" d="M335.21,243.75c4.46-.97,4.55-.97,4.47,3.84-.09,5.64,.42,11.28-.3,16.91,0,0,0-.02,0-.02-1.7,8.94-9.24,11.35-15.93,14.65-11.46,5.65-23.33,10.44-34.61,16.47-1.89,1.01-3.52,1.12-5.53,.18-3.35-1.57-6.85-2.79-10.31-4.12-1.16-.45-2.18-.8-2.16-2.44,.12-9.66,.16-19.32,.23-28.99,3.72-1.83,7.59-2.67,11.73-3.23,7.83-1.07,15.55-3.03,23.31-4.67,9.91-2.1,19.64-4.85,29.09-8.58Z"/>
  <path class="cls-3" d="M338.04,139.89c-8.98-1.41-18.01-2.42-27.05-3.29,.75-1.89-.75-2.02-1.85-2.28-1.38-.32-2.82-.36-4.2-.67-11.18-2.48-22.48-3.99-33.88-4.85-.09-8.92-.82-17.85,.38-26.77,.22-1.63,0-3.31,0-4.97,.64-.04,1.31-.23,1.91-.11,12.56,2.51,25.11,5.05,37.66,7.59,8.39,1.7,16.5,4.73,25.08,5.59,2.7,.23,3.8,1.42,3.69,4.45-.27,7.44-.09,14.9-.1,22.35,0,1.28,.36,2.81-1.64,2.96Z"/>
  <path class="cls-3" d="M271.24,167.24c-.49-7.98-.43-15.97-.16-23.96,.09-2.56,1.02-3.43,3.52-3.24,12.05,.91,24.11,1.85,36.18,2.51,9.32,.52,18.56,2.07,27.92,2.05,1.29,.85,.81,2.18,.81,3.33,.04,6.85-.14,13.71,.09,20.55,.1,2.89-.69,4.08-3.52,3.62-9.39,.15-18.82-.41-28.09,1.74,.03-1,.06-2,.09-2.99,.06-2.03-.75-3.05-2.9-3.04-11.32,.09-22.63,.03-33.94-.58Z"/>
  <path class="cls-3" d="M271.04,243.25c-.28-7.66-.37-15.31,.05-22.97,10.19-2.8,20.68-3.83,31.1-5.14,12.48-1.56,24.8-4.12,37.23-5.9,.58,8.73,.08,17.46,.26,26.2,.03,1.58-1.13,1.74-2.07,2.12-2.9,1.16-5.84,2.24-8.76,3.35-.96,.19-1.93,.32-2.87,.58-5.78,1.56-11.55,3.15-17.33,4.73,0-1.55-.1-3.11,.02-4.66,.17-2.17-.59-2.63-2.66-2.19-11.53,2.43-23.28,2.89-34.97,3.88Z"/>
  <path class="cls-3" d="M270.71,184.7c-.18-3.48,1.44-4.47,4.8-4.42,7.19,.11,14.39-.53,21.57-.4,11.88,.22,23.64-1.57,35.49-1.73,1.82-.02,3.71,.5,5.47-.42,2.14,.11,1.49,1.78,1.5,2.95,.05,7.6,.04,15.21,.05,22.81-10.26,1.71-20.51,3.5-30.79,5.1-8.46,1.31-16.94,2.68-25.46,3.45-4.07,.36-8.03,2.19-12.21,1.11,.14-.45,.29-.91,.43-1.36,2.27-.27,4.55-.55,6.82-.81,9.54-1.05,19.07-2.11,28.62-3.13,1.38-.15,2.34-.14,2.41-2.2,.1-3.12-1.05-3.65-3.82-3.32-11.39,1.37-22.85,1.86-34.31,2.25-.96-4.94-.19-9.93-.42-14.89-.08-1.66-.11-3.32-.16-4.98Z"/>
  <path class="cls-5" d="M179.24,275.65c-.03,13.75-.07,27.51-.1,41.26-13.69-3.1-27.33-6.35-40.77-10.46,.03-12.46,.07-24.91,.1-37.37,7.34,1.38,14.65,2.9,22.02,4.1,6.22,1.01,12.49,1.66,18.74,2.47Z"/>
  <path class="cls-5" d="M178.35,1.99c.03,12.77,.06,25.55,.09,38.32-3.78,.96-7.54,1.98-11.33,2.88-2.32,.55-4.69,.81-6.97,1.59-7.33,2.5-14.56,5.44-22.43,5.83-.04-1.21-.12-2.43-.13-3.64-.06-10.39-.1-20.77-.15-31.16,5.37-2.08,10.71-4.26,16.13-6.2,7.17-2.57,14.39-4.98,21.6-7.42,1.02-.35,2.1-.65,3.2-.21Z"/>
  <path class="cls-5" d="M179.29,138.55c.09,9.91,.18,19.82,.27,29.74-12.21,.07-24.41,.13-36.62,.24-1.8,.02-3.8-.37-4.96,1.68-.07-1.44-.17-2.87-.19-4.31-.08-8.54-.15-17.07-.22-25.61,13.89-1.04,27.8-1.48,41.71-1.73Z"/>
  <path class="cls-5" d="M179.66,228.81c-.09,9.29-.31,18.57,.13,27.86-4.39,.64-8.61-.42-12.88-1.2-7.18-1.31-14.57-.69-21.72-2.3-3.07-.69-4.7,.85-5.37,3.75-1.04,1.23-.26,2.69-.49,4.02-.22,1.22-.66,1.19-1.26,.22,.01-11.89,.03-23.77,.04-35.66,6.86-.33,13.56,1.31,20.37,1.62,7.05,.32,14.09,.8,21.14,1.21,.03,.16,.05,.32,.05,.48Z"/>
  <path class="cls-5" d="M179.83,183.84c-.04,8.98-.08,17.96-.12,26.93-13.49,.2-26.93-.91-40.39-1.61-1.78-.39-1.19-1.85-1.2-2.94-.03-7.86,0-15.73,.02-23.59,8.73-.39,17.45,.28,26.18,.4,5.13,.07,10.26,.12,15.39,.17,.07,.21,.11,.42,.12,.64Z"/>
  <path class="cls-3" d="M138.48,269.08c-.03,12.46-.07,24.91-.1,37.37-8.5-2.37-16.99-4.77-25.5-7.09-3.05-.83-4.52-2.26-4.4-5.92,.33-9.44,.08-18.9,.15-28.35,0-.92-.86-2.78,1.53-2.24,9.44,2.1,18.88,4.16,28.33,6.24Z"/>
  <path class="cls-3" d="M138.1,225.5c-.01,11.89-.03,23.77-.04,35.66-.18,.02-.31,.12-.4,.29-8.94-1.84-17.86-3.75-26.82-5.46-1.84-.35-2.3-1.07-2.29-2.81,.04-9.56,.01-19.11-.02-28.67,0-1.5,.05-2.56,2.11-2.29,9.14,1.17,18.3,2.2,27.46,3.29Z"/>
  <path class="cls-3" d="M138.14,182.63c-.01,7.86-.04,15.73-.02,23.59,0,1.09-.59,2.55,1.21,2.94-2.53,1.68-1.24,3.97-.92,6.1,0,.74,.02,1.48,.03,2.21-5.15,.61-10.15-.89-15.25-1.16-4.22-.23-8.4-.98-12.62-1.31-1.55-.12-2.34-.3-2.32-2.19,.12-9.88,.09-19.76,.16-29.64,0-.78-.61-1.91,1.33-1.81,8.82,.46,17.65,.66,26.47,.98,.64,.02,1.28,.19,1.92,.28Z"/>
  <path class="cls-3" d="M128.47,95.02c-5.94,1.06-11.9,1.99-17.8,3.25-2.15,.46-2.36-.23-2.35-2.05,.07-9.31,.23-18.62,0-27.92-.09-3.66,2.99-2.43,4.35-3.75,.42,0,.87,.08,1.25-.04,7.94-2.46,16.08-4.19,23.9-7.07,0,11.06,0,22.12,.01,33.18,0,.81,.3,1.51,.82,2.12-.4,.21-.8,.41-1.2,.62-2.9,1.1-6.15,.17-8.98,1.67Z"/>
  <path class="cls-3" d="M137.58,140.29c.07,8.54,.13,17.07,.22,25.61,.01,1.44,.12,2.88,.19,4.3-.04,.73-.32,1.51,.27,2.17-.13,1.24-.26,2.47-.39,3.71-8.81-.9-17.64-1.05-26.48-1-2.14,.01-3.08-.35-3.04-2.86,.16-8.67,.13-17.35,.01-26.03-.03-2.14,.65-2.86,2.68-3.07,6.47-.65,12.93-1.49,19.39-2.22,2.38-.27,4.77-.41,7.15-.61Z"/>
  <path class="cls-3" d="M137.86,133.95c-9.12,.33-18.15,1.7-27.22,2.59-1.71,.17-2.22-.35-2.22-1.86-.01-9.11,.02-18.23-.04-27.34-.01-1.81,1.15-1.77,2.34-2.05,8.55-1.97,17.09-3.98,25.64-5.98,.61,.09,1.22,.18,1.83,.27-.04,8.95-.14,17.9-.08,26.85,.01,1.94-.87,3.93,.2,5.84-.15,.56-.3,1.12-.45,1.68Z"/>
  <path class="cls-5" d="M44.45,68.22c5.64-3.13,11.76-5.11,17.66-7.63,3.86-1.65,7.33-4.3,11.7-4.61,.06,11.8,.11,23.6,.16,35.4-.16,.56-.44,.96-1.06,1.09-3.59,.75-7.27,1.23-10.75,2.36-3.28,1.06-7.23,.49-9.69,3.75l-7.4,1.34c-.53-10.56,.26-21.15-.63-31.71Z"/>
  <path class="cls-3" d="M137.42,15.82c.05,10.39,.09,20.77,.15,31.16,0,1.21,.08,2.43,.13,3.64-3.99,1.74-8.25,2.5-12.4,3.66-4.12,1.16-8.53,1.47-12.24,3.96-.56-.21-1.02,.05-1.54,.25-1.93,.73-3.21,1.13-3.04-2.11,.43-8.33-.11-16.68,.29-25.02,.11-2.24,1.01-3.37,2.8-4.33,8.32-4.46,16.85-8.38,25.85-11.21Z"/>
  <path class="cls-5" d="M73.65,294.89c-9.18-3.21-17.5-8.46-26.68-11.68-.79-.28-1.44-.95-2.15-1.44,.09-10.28,.19-20.57,.28-30.85,.73,1.88,2.27,2.66,4.06,2.57,3.44-.17,6.57,1,9.85,1.67,4.85,.99,9.55,2.78,14.54,3.05,.48,12.22,.25,24.45,.1,36.68Z"/>
  <path class="cls-5" d="M45.11,142.76c5.59-1.6,11.37-1.02,17.05-1.63,1.95-.21,3.91-.33,5.86-.5,1.94,.07,3.89,.14,5.83,.2,.02,8.72,.04,17.44,.05,26.16-5.34,.16-10.68,.32-16.02,.49-2.79-.05-5.57-.1-8.36-.15-.9-.01-1.76,.04-1.91,1.24l-.03,.06c-.81,.01-1.63,.03-2.44,.04-.48-8.64-.24-17.27-.04-25.91Z"/>
  <path class="cls-3" d="M73.65,294.89c.15-12.23,.38-24.45-.1-36.68,.14-.64,.29-1.29,.43-1.93,5.04,.55,10.07,1.13,15.12,1.64,4.44,.45,4.9,.92,4.87,5.51-.05,8.23-.16,16.46-.12,24.69,0,1.91-.66,2.78-2.27,3.82-4.72,3.05-10.19,3.17-15.32,4.57-1.26,.34-1.94-.77-2.62-1.64Z"/>
  <path class="cls-3" d="M73.97,91.39c-.05-11.8-.11-23.6-.16-35.4,4.34-4.49,11.76-5.66,16.91-2.64,3.06,1.79,3.04,5.19,3.12,7.94,.25,9.11-.04,18.23-.12,27.35-6.75-.3-13.2,1.55-19.75,2.75Z"/>
  <path class="cls-5" d="M45.07,213.13c8.87,.84,17.74,1.66,26.61,2.53,.74,.07,1.45,.45,2.17,.69-.04,8.12-.08,16.24-.12,24.36-7.18-.77-14.24-2.4-21.47-2.78-.43-.53-.88-.54-1.33-.02-1.65,.05-3.3,.09-4.94,.14-.31,0-.61,.02-.92,.02-.29-8.32-.24-16.63,0-24.95Z"/>
  <path class="cls-3" d="M44.45,68.22c.89,10.56,.1,21.15,.63,31.71-2.11,1.86-5.08,1.54-7.34,3.01-3.84,.91-7.52,2.26-11.04,4.07-3.5,1.8-3.53,1.79-3.54-2.02-.01-8.13,.04-16.25-.08-24.37-.02-1.78,.46-2.81,2.01-3.71,4.27-2.46,8.79-4.32,13.29-6.25,2-.86,4.03-1.62,6.05-2.43Z"/>
  <path class="cls-5" d="M45.05,179c9.57,.36,19.15,.72,28.72,1.08,.08,7.89,.17,15.78,.25,23.67-9.64-.05-19.27-.1-28.91-.16-.39-8.2-.27-16.4-.07-24.59Z"/>
  <path class="cls-3" d="M45.07,213.13c-.24,8.32-.28,16.63,0,24.95-.05,1.74-.09,3.49-.14,5.23-5.47,.06-10.4-2.17-15.39-3.94-6.42-2.29-6.36-2.49-6.41-9.46-.05-6.21-.04-12.43-.16-18.64-.04-1.9,.15-2.93,2.45-2.24,6.43,1.94,13.08,2.79,19.64,4.11Z"/>
  <path class="cls-6" d="M139.81,256.93c.68-2.9,2.31-4.44,5.37-3.75,7.16,1.61,14.54,.99,21.72,2.3,4.27,.78,8.49,1.84,12.88,1.2,8.76,.29,17.46-.8,26.2-1.01,1.88-.05,4.66-1.39,5.4,.57,.9,2.38,1.14,5.42-.43,8.01-1.18,.21-2.35,.48-3.54,.62-9.44,1.11-18.88,2.14-28.4,2.08-.75-.19-1.5-.38-2.24-.56-1.72-.58-3.51-.67-5.3-.59-3.32-.5-6.54-1.47-9.92-1.8-5.97-.59-11.91-1.59-17.87-2.33-2.82-.35-4.5-1.52-3.88-4.73Z"/>
  <path class="cls-3" d="M45.1,250.92c-.09,10.28-.19,20.57-.28,30.85-6.41-2.29-12-6.15-17.76-9.67-1.81-1.11-2.99-3.17-3.15-5.28-.56-7.39-1.41-14.77-1.1-22.21,.09-2.12,1.14-1.66,2.37-1.27,6.55,2.05,13.11,4.08,19.66,6.12,.09,.49,.17,.97,.26,1.46Z"/>
  <path class="cls-6" d="M138.41,215.27c-.32-2.13-1.61-4.42,.92-6.1,13.45,.71,26.89,1.81,40.38,1.61,8.52,.57,17.05,.02,25.57,.12,5.78,.07,5.77,0,5.81,5.72,0,1.11,.06,2.22,.1,3.34-1.83,1.15-3.85,.56-5.77,.56-10.51-.04-21.05,.28-31.51-.46-9.02-.63-18-1.53-27.04-1.2-.25-.13-.51-.26-.76-.39-1.35-3.28-2.99-3.96-7.69-3.19Z"/>
  <path class="cls-3" d="M44.08,137.25c-6.24-.08-12.35,1.07-18.47,2.04-1.89,.3-2.51-.07-2.49-2.1,.1-7.34,.09-14.69,0-22.03-.02-1.67,.64-2.09,2.07-2.68,4.56-1.88,9.5-2.59,13.9-4.87,2.09,.42,3.69-1.42,5.73-1.25,0,6.21-.07,12.42,0,18.63,.04,3.34,.3,6.68,.47,10.02,.31,.65-1.23,1.24-.06,1.91-.41,.11-.81,.23-1.22,.34,0,0,.07,0,.07,0Z"/>
  <path class="cls-3" d="M45.11,142.76c-.2,8.64-.44,17.27,.04,25.91-.05,1.33-.09,2.66-.14,3.99-6.53-.17-13.06-.39-19.59-.47-1.62-.02-2.28-.34-2.26-2.19,.1-7.77,.08-15.53,.02-23.3-.01-1.81,.56-2.58,2.4-2.68,6.51-.35,13.02-.83,19.53-1.26Z"/>
  <path class="cls-3" d="M45.05,179c-.21,8.2-.32,16.4,.07,24.59-.06,1.25-.12,2.5-.18,3.74-6.95-.33-13.58-2.64-20.44-3.52-1.19-.15-1.34-.82-1.34-1.81,.02-7.54,.06-15.08-.02-22.62-.02-2.05,1.23-1.7,2.38-1.63,6.51,.4,13.02,.83,19.53,1.24Z"/>
  <path class="cls-6" d="M138.25,172.37c-.59-.66-.31-1.43-.27-2.17,1.16-2.05,3.16-1.66,4.96-1.67,12.21-.1,24.41-.16,36.62-.24,8.65,1.12,17.35,1.25,26.04,1.36,3,.04,4.2,.95,3.75,4.01-.14,.96,.1,1.99,.17,2.98,.08,2.39-1.74,1.53-2.8,1.54-9.01,.11-18.02,.13-27.03,.18-3.73-1.12-7.59-.63-11.38-.82-6.87-.33-13.75-.39-20.62-.56-3.03-1.78-6.07-3.57-9.45-4.61Z"/>
  <path class="cls-3" d="M93.9,97.72c.05,10.11,.34,20.21-.15,30.31-6.54,.36-13.09,.72-19.63,1.08-.11-1.21-.3-2.42-.31-3.63-.07-8.55-.11-17.1-.16-25.66,6.68-1.41,13.47-1.65,20.25-2.11Z"/>
  <path class="cls-3" d="M73.91,166.99c-.02-8.72-.04-17.44-.05-26.16,6.59-1.24,13.25-.66,19.88-.68-.02,9.11,.56,18.22-.02,27.33-6.6-.16-13.2-.33-19.81-.49Z"/>
  <path class="cls-3" d="M73.73,240.71c.04-8.12,.08-16.24,.12-24.36,5.81-.14,11.51,1.03,17.27,1.5,1.62,.13,2.79,1,2.73,3.06-.23,8.01,.5,16.03-.06,24.04-2.14-.84-4.39-1.2-6.63-1.67-4.46-.92-9.09-.97-13.43-2.56Z"/>
  <path class="cls-3" d="M74.02,203.75c-.08-7.89-.17-15.78-.25-23.67,6.29-.87,12.57,.4,18.86,.14,1.22-.05,1.38,.84,1.36,1.81-.18,7.65,.41,15.32-.3,22.96-6.56-.41-13.12-.82-19.67-1.24Z"/>
  <path class="cls-2" d="M271.14,213.14c4.18,1.08,8.15-.74,12.21-1.11,8.52-.76,16.99-2.13,25.46-3.45,10.28-1.6,20.53-3.39,30.79-5.1,.72,1.94,.68,3.86-.16,5.76-12.44,1.79-24.75,4.34-37.23,5.9-10.42,1.3-20.91,2.34-31.1,5.14,.01-2.38,.03-4.76,.04-7.14Z"/>
  <path class="cls-6" d="M73.73,240.71c4.34,1.59,8.96,1.64,13.43,2.56,2.24,.46,4.49,.83,6.63,1.67,.02,.99,.08,1.97,.06,2.96-.13,4.51-.57,5.17-4.84,4.45-3.57-.6-7.21-.08-10.66-.89-6.25-1.47-12.38-3.46-18.68-4.81-4.56-.98-9.06-2.23-13.58-3.36,1.16-1.77,.14-3.49-.1-5.24,1.65-.05,3.3-.09,4.94-.14,.44,0,.88,.01,1.33,.02,7.23,.38,14.29,2.01,21.47,2.78Z"/>
  <path class="cls-6" d="M137.86,133.95c.15-.56,.3-1.12,.45-1.68,1.56-.45,3.1-1.15,4.69-1.31,11.94-1.24,23.89-2.38,35.84-3.55,.76,1.9,2.4,1.16,3.69,1.18,7.51,.14,15,.24,22.46,1.35,2.28,.34,3.86,1.24,5.06,3.09-.67,2.42-2.67,1.91-4.3,1.85-8.82-.3-17.63-.71-26.45-1.02-1.62-.06-3.25,.16-4.88,.25-11.18,.18-22.35,.36-33.53,.53-1.05,.02-2.2,.36-3.03-.69Z"/>
  <path class="cls-2" d="M308.65,246.22c5.78-1.58,11.55-3.17,17.33-4.73,.94-.25,1.91-.39,2.87-.58,.1,.54,.34,1.35,.88,1.11,2.38-1.04,3.76,.84,5.48,1.73-9.45,3.72-19.18,6.48-29.09,8.58-7.76,1.64-15.48,3.6-23.31,4.67-4.14,.57-8.02,1.41-11.73,3.23-1.24-2.87-.95-5.77-.17-8.68,2.82,.02,5.64,.03,8.46,.07,10.11,.13,19.69-2.67,29.29-5.4Z"/>
  <path class="cls-6" d="M73.91,166.99c6.6,.16,13.2,.33,19.81,.49,.8,8.05,.8,8.18-6.81,7.99-12.28-.31-24.55-.82-36.83-1.19-1.26-.04-2.31-.55-3.43-.94,.42-1.55,1.19-3.03,.95-4.72,0,0,.03-.06,.03-.06,3.39-.65,6.97,.48,10.27-1.09,5.34-.16,10.68-.32,16.02-.49Z"/>
  <path class="cls-6" d="M308.65,246.22c-9.6,2.74-19.18,5.53-29.29,5.4-2.82-.04-5.64-.05-8.46-.07,.05-2.77,.09-5.54,.14-8.31,11.69-.99,23.44-1.44,34.97-3.87,2.07-.44,2.83,.02,2.66,2.19-.12,1.54-.02,3.1-.02,4.66Z"/>
  <path class="cls-6" d="M74.02,203.75c6.56,.41,13.12,.82,19.67,1.24,.04,2.07,.08,4.14,.13,6.21-1.39,.47-2.79,.21-4.2,.12-5.29-.34-10.58-.64-15.87-.96-4.61-1.56-9.46-1-14.18-1.68-4.85-.7-9.76-.91-14.65-1.34,.06-1.25,.12-2.5,.18-3.74,9.64,.05,19.27,.1,28.91,.16Z"/>
  <path class="cls-6" d="M74.12,129.11c6.54-.36,13.09-.72,19.63-1.08,.23,1.92,.29,3.83-.15,5.72-1.52,.11-3.05,.12-4.55,.35-5.15,.78-10.41-.02-15.52,1.21-7.58,.02-15.05,1.27-22.56,2.14-1.91-.3-3.9,.24-5.75-.54-1.17-.68,.38-1.27,.07-1.92,4.88-2.06,10.01-3.01,15.2-3.84,4.54-.73,9.24-.34,13.63-2.04Z"/>
  <path class="cls-6" d="M271.3,204.57c11.46-.39,22.91-.88,34.31-2.25,2.77-.33,3.92,.2,3.82,3.32-.07,2.06-1.03,2.05-2.41,2.2-9.54,1.02-19.08,2.08-28.62,3.13-2.28,.25-4.55,.54-6.82,.81-.65-2.38-.37-4.8-.27-7.2Z"/>
  <path class="cls-6" d="M271.07,128.8c11.4,.87,22.71,2.38,33.88,4.85,1.38,.31,2.82,.35,4.2,.67,1.1,.26,2.59,.39,1.85,2.28-3.93,.81-7.84,.25-11.76-.12-2.94-.27-5.86-.62-8.8-.06-1.34-.59-2.76-.45-4.16-.49-5.08-.17-10.17-.12-15.21-.89-.11-1.28-.22-2.55-.33-3.83,.11-.81,.22-1.61,.33-2.42Z"/>
  <path class="cls-6" d="M74.17,95.22c-3.13-.87-5.98,.64-8.96,1.08-4.27,.63-8.32,2.52-12.74,2.3,2.46-3.26,6.41-2.69,9.69-3.75,3.48-1.13,7.15-1.61,10.75-2.36,.62-.13,.9-.54,1.06-1.09,6.55-1.2,13-3.05,19.75-2.75,0,1.18-.01,2.36-.02,3.53-4.71-.33-9.26,.83-13.82,1.68-1.91,.35-4.14-.48-5.71,1.36Z"/>
  <path class="cls-5" d="M45.1,250.92c-.09-.49-.17-.97-.26-1.46,1.09-.49,2.09-.06,3.16,.19,8.04,1.86,16.1,3.68,24.17,5.41,.88,.19,1.24,.77,1.81,1.22-.14,.64-.29,1.29-.43,1.93-4.99-.27-9.69-2.06-14.54-3.05-3.27-.67-6.41-1.84-9.85-1.67-1.79,.09-3.33-.7-4.06-2.57Z"/>
  <path class="cls-2" d="M255.86,105.3c-3.05-.7-6.29-.54-9.17-2.03,.01-.88-.03-1.76,.05-2.63,.18-1.82,1-2.71,2.78-1.59,2.55,1.61,6.65,1.62,6.34,6.25Z"/>
  <path class="cls-3" d="M93.68,136.18c-5.65,.18-11.29,.39-16.94,.53-1.22,.03-2.73,.46-3.21-1.4,5.11-1.23,10.37-.44,15.52-1.21,1.5-.23,3.03-.24,4.55-.35,.03,.81,.05,1.62,.08,2.43Z"/>
  <path class="cls-5" d="M138.25,172.37c3.38,1.05,6.42,2.83,9.45,4.61-3.37,.68-6.61-.13-9.85-.9,.13-1.24,.26-2.47,.4-3.71Z"/>
  <path class="cls-5" d="M138.41,215.27c4.69-.78,6.33-.1,7.69,3.19-2.64,.34-5.17-.18-7.66-.97,0-.74-.02-1.48-.03-2.21Z"/>
  <path class="cls-4" d="M74.17,95.22c1.57-1.84,3.8-1.01,5.71-1.36,4.56-.85,9.11-2.01,13.82-1.68,0,0-.01,.18-.01,.18-6.51,.95-13.01,1.91-19.52,2.87Z"/>
  <path class="cls-6" d="M47.59,168.63c.25,1.69-.53,3.17-.95,4.72-.65,.03-1.19-.21-1.63-.69,.05-1.33,.09-2.66,.14-3.99,.81-.01,1.63-.03,2.44-.04Z"/>
  <path class="cls-6" d="M45.99,238.05c.24,1.74,1.27,3.47,.1,5.24-.39,0-.77,.01-1.16,.02,.05-1.74,.09-3.49,.14-5.23,.31,0,.61-.02,.92-.02Z"/>
  <path class="cls-2" d="M196.15,94.57c-.94,.27-1.83,.18-2.66-.36,1.19-2.2,1.91-.81,2.66,.36Z"/>
  <path class="cls-2" d="M256.25,112.53c0-.68,0-1.36,0-2.04,1.39,.68,1.39,1.36,0,2.04Z"/>
  <path class="cls-2" d="M242.12,96.44c.66,.04,1.32,.09,1.97,.13-.1,.54-.22,1.08-.89,1.12-.86,.05-1-.59-1.08-1.25Z"/>
  <polygon class="cls-4" points="339.37 264.47 339.38 264.5 339.53 264.53 339.37 264.47"/>
  <polygon class="cls-6" points="44.08 137.25 44.01 137.25 44.04 137.41 44.08 137.25"/>
  <path class="cls-5" d="M178.29,86.65c-7.58,.95-15.24,1.19-22.7,3.05,0,0-.24,.1-.24,.1,0,0,.09,0,.09,0-5.6,.98-11.2,1.96-16.81,2.93-.52-.61-.81-1.31-.82-2.12,0-11.06,0-22.12-.01-33.18,6.67-2.74,13.88-3.49,20.64-5.94,6.24-2.25,12.64-3.97,19.21-4.92,.37-.05,.69-.48,1.02-.73,.05,12.87,.11,25.74,.16,38.61,0,.77,.08,1.57-.57,2.17Z"/>
  <path class="cls-6" d="M271.24,167.24c11.31,.61,22.62,.66,33.94,.58,2.15-.02,2.96,1.01,2.9,3.04-.03,1-.06,2-.09,2.99-1.83,1.12-3.9,1.17-5.91,1.22-9.24,.22-18.48,.21-27.71,.53-2.71,.09-3.47-.86-3.22-3.38,.16-1.64,.07-3.31,.09-4.97Z"/>
  <path class="cls-5" d="M138.19,99.58c4.45-1.67,9.16-1.91,13.79-2.57,8.91-1.28,17.71-3.39,26.73-3.84,.11,11.41,.67,22.82,.12,34.23-11.95,1.17-23.9,2.31-35.84,3.55-1.59,.17-3.13,.86-4.69,1.31-1.07-1.9-.19-3.9-.2-5.84-.06-8.95,.04-17.9,.08-26.85Z"/>
  <path class="cls-6" d="M57.89,167.48c-3.3,1.57-6.87,.44-10.27,1.09,.15-1.19,1.01-1.25,1.91-1.24,2.79,.05,5.57,.1,8.36,.15Z"/>
  <path class="cls-4" d="M52.26,237.93c-.44,0-.88-.01-1.33-.02,.45-.52,.89-.51,1.33,.02Z"/>
  <path class="cls-5" d="M74.12,129.11c-4.39,1.71-9.09,1.32-13.63,2.04-5.19,.83-10.32,1.78-15.2,3.84-.16-3.34-.43-6.67-.47-10.02-.07-6.21,0-12.42,0-18.63,4.39-1.17,8.76-2.45,13.18-3.46,5.18-1.18,10.34-2.54,15.65-3.06,.05,8.55,.08,17.11,.16,25.66,.01,1.21,.2,2.42,.31,3.63Z"/>
  <path class="cls-6" d="M155.36,89.8s.24-.1,.24-.1c0,0-.24,.1-.24,.1Z"/>
  <path class="cls-6" d="M270.79,83.45c.6,.27,1.81,.79,3.35,1.41,11.01,4.42,16.52,6.63,20.1,7.42,.55,.12,2.65,.57,4.06,2.31,.44,.54,.97,1.21,.79,1.62-.56,1.22-6.71-1.65-16.56-3.66-6.87-1.41-10.49-1.37-11.83-4.12-.82-1.68-.39-3.61,.09-4.97Z"/>
  <g>
    <rect class="cls-1" y="270.86" width="15.23" height="48.01" rx="3" ry="3"/>
    <path d="M12.23,315.88H3v-42.01H12.23v42.01Z"/>
    <path class="cls-1" d="M26.68,318.88c-.53,0-1.02-.14-1.45-.37-.43,.24-.92,.37-1.45,.37H15.43c-1.66,0-3-1.34-3-3v-34.01c0-1.66,1.34-3,3-3h8.35c.43,0,.83,.09,1.2,.25,1.15-.32,2.47-.48,3.97-.48,2.09,0,4.04,.58,5.8,1.71,2.12,1.37,3.28,3.54,3.28,6.13v29.41c0,1.66-1.34,3-3,3h-8.35Z"/>
    <path d="M35.03,315.88h-8.35v-27.3c0-1.04-.48-1.55-1.45-1.55s-1.45,.5-1.45,1.49v27.36H15.43v-34.01h8.35v1.14c1.12-.92,2.84-1.38,5.17-1.38,1.51,0,2.9,.41,4.17,1.23,1.27,.82,1.91,2.02,1.91,3.6v29.41Z"/>
    <path class="cls-1" d="M40.89,318.88c-1.66,0-3-1.34-3-3v-25.98c-1.57-.1-2.81-1.4-2.81-2.99v-5.04c0-1.64,1.32-2.97,2.95-3,.22-2.09,.7-3.67,1.46-4.86,1.39-2.17,4.24-3.14,9.25-3.14h5.27c1.66,0,3,1.34,3,3v4.57c0,.64-.2,1.23-.54,1.71,.34,.49,.54,1.08,.54,1.71v5.04c0,1.66-1.34,3-3,3h-1.78v25.97c0,1.66-1.34,3-3,3h-8.35Z"/>
    <path d="M54.02,286.9h-4.78v28.97h-8.35v-28.97h-2.81v-5.04h2.81c0-2.99,.38-5.07,1.13-6.24,.75-1.17,2.99-1.76,6.72-1.76h5.27v4.57h-1.6c-1.42,0-2.3,.27-2.65,.8-.35,.54-.52,1.41-.52,2.62h4.78v5.04Z"/>
    <path class="cls-1" d="M56.72,318.88c-1.66,0-3-1.34-3-3v-34.01c0-1.66,1.34-3,3-3h8.35c.43,0,.83,.09,1.2,.25,1.15-.32,2.46-.48,3.96-.48,2.31,0,4.36,.65,6.07,1.93,1.96,1.46,2.99,3.5,2.99,5.91v9.49c0,1.66-1.34,3-3,3h-8.22v16.92c0,1.66-1.34,3-3,3h-8.35Z"/>
    <path d="M76.29,295.95h-8.35v-7.38c0-1.04-.48-1.55-1.44-1.55s-1.44,.5-1.44,1.49v27.36h-8.35v-34.01h8.35v1.14c1.11-.92,2.83-1.38,5.16-1.38,1.66,0,3.09,.44,4.28,1.33,1.19,.89,1.79,2.06,1.79,3.5v9.49Z"/>
    <path class="cls-1" d="M86.31,319.34c-8.87,0-9.83-5.83-9.83-8.33v-6.83c0-2.26,.84-4.33,2.43-6-1.24-.37-2.14-1.52-2.14-2.88v-6.8c0-3.69,1.68-9.88,12.96-9.88s12.32,7.12,12.32,10.18v27.07c0,1.66-1.34,3-3,3h-7.38c-.3,0-.59-.04-.87-.13-1.78,.6-3.63,.6-4.49,.6Z"/>
    <path d="M99.06,315.88h-7.38v-1.32c-.63,1.19-2.41,1.79-5.36,1.79-4.55,0-6.83-1.78-6.83-5.33v-6.83c0-1.52,.55-2.85,1.66-3.98,1.1-1.13,3.33-2.55,6.67-4.25,1.93-.98,2.9-1.76,2.9-2.34v-5.04c0-1.11-.48-1.67-1.44-1.67-1.09,0-1.64,1.36-1.64,4.07,0,.49,.03,1.21,.09,2.17,.08,.96,.12,1.68,.12,2.17h-8.06v-6.8c0-4.59,3.32-6.88,9.96-6.88,6.21,0,9.32,2.39,9.32,7.18v27.07Zm-8.35-6.36v-8.76c-1.91,.47-2.87,1.33-2.87,2.58v6.18c0,1.04,.5,1.55,1.49,1.55,.92,0,1.38-.52,1.38-1.55Z"/>
    <path class="cls-1" d="M138.71,318.88c-.98,0-1.85-.47-2.4-1.2-.55,.74-1.43,1.2-2.4,1.2h-6.36c-1.21,0-2.29-.73-2.75-1.81-.46,1.06-1.52,1.81-2.75,1.81h-7.21c-1.66,0-3-1.34-3-3v-42.01c0-1.66,1.34-3,3-3h11.87c1.44,0,2.67,1.02,2.95,2.43l1.06,5.5,.91-5.43c.24-1.44,1.49-2.5,2.96-2.5h12.36c1.66,0,3,1.34,3,3v42.01c0,1.66-1.34,3-3,3h-8.23Z"/>
    <path d="M146.94,315.88h-8.23v-23.58l-4.8,23.58h-6.36l-5.51-23.58v23.58h-7.21v-42.01h11.87l4.22,21.8,3.66-21.8h12.36v42.01Z"/>
    <path class="cls-1" d="M157.35,319.34c-8.87,0-9.83-5.83-9.83-8.33v-6.83c0-2.26,.84-4.33,2.43-6-1.24-.37-2.14-1.52-2.14-2.88v-6.8c0-3.69,1.68-9.88,12.96-9.88s12.32,7.12,12.32,10.18v27.07c0,1.66-1.34,3-3,3h-7.38c-.3,0-.59-.04-.87-.13-1.78,.6-3.63,.6-4.49,.6Z"/>
    <path d="M170.09,315.88h-7.38v-1.32c-.63,1.19-2.41,1.79-5.36,1.79-4.55,0-6.83-1.78-6.83-5.33v-6.83c0-1.52,.55-2.85,1.66-3.98,1.1-1.13,3.33-2.55,6.67-4.25,1.93-.98,2.9-1.76,2.9-2.34v-5.04c0-1.11-.48-1.67-1.44-1.67-1.09,0-1.64,1.36-1.64,4.07,0,.49,.03,1.21,.09,2.17,.08,.96,.12,1.68,.12,2.17h-8.06v-6.8c0-4.59,3.32-6.88,9.96-6.88,6.21,0,9.32,2.39,9.32,7.18v27.07Zm-8.35-6.36v-8.76c-1.92,.47-2.87,1.33-2.87,2.58v6.18c0,1.04,.5,1.55,1.49,1.55,.92,0,1.38-.52,1.38-1.55Z"/>
    <path class="cls-1" d="M184.75,318.88c-.53,0-1.02-.14-1.45-.37-.43,.24-.92,.37-1.45,.37h-8.35c-1.66,0-3-1.34-3-3v-34.01c0-1.66,1.34-3,3-3h8.35c.43,0,.83,.09,1.2,.25,1.15-.32,2.47-.48,3.97-.48,2.09,0,4.04,.58,5.8,1.71,2.12,1.37,3.28,3.54,3.28,6.13v29.41c0,1.66-1.34,3-3,3h-8.35Z"/>
    <path d="M193.1,315.88h-8.35v-27.3c0-1.04-.48-1.55-1.45-1.55s-1.45,.5-1.45,1.49v27.36h-8.35v-34.01h8.35v1.14c1.12-.92,2.84-1.38,5.17-1.38,1.51,0,2.9,.41,4.17,1.23,1.27,.82,1.91,2.02,1.91,3.6v29.41Z"/>
    <path class="cls-1" d="M203.36,319.34c-8.87,0-9.83-5.83-9.83-8.33v-6.83c0-2.26,.84-4.33,2.43-6-1.24-.37-2.14-1.52-2.14-2.88v-6.8c0-3.69,1.68-9.88,12.96-9.88s12.32,7.12,12.32,10.18v27.07c0,1.66-1.34,3-3,3h-7.38c-.3,0-.59-.04-.87-.13-1.78,.6-3.63,.6-4.49,.6Z"/>
    <path d="M216.1,315.88h-7.38v-1.32c-.63,1.19-2.41,1.79-5.36,1.79-4.55,0-6.83-1.78-6.83-5.33v-6.83c0-1.52,.55-2.85,1.66-3.98s3.33-2.55,6.67-4.25c1.93-.98,2.9-1.76,2.9-2.34v-5.04c0-1.11-.48-1.67-1.44-1.67-1.09,0-1.64,1.36-1.64,4.07,0,.49,.03,1.21,.09,2.17,.08,.96,.12,1.68,.12,2.17h-8.06v-6.8c0-4.59,3.32-6.88,9.96-6.88,6.21,0,9.32,2.39,9.32,7.18v27.07Zm-8.35-6.36v-8.76c-1.92,.47-2.87,1.33-2.87,2.58v6.18c0,1.04,.5,1.55,1.49,1.55,.92,0,1.38-.52,1.38-1.55Z"/>
    <path class="cls-1" d="M221,326.08c-1.66,0-3-1.34-3-3v-4.92c0-.59,.17-1.15,.47-1.62-1.29-1.33-1.97-3.01-1.97-4.92v-24.43c0-5.36,3.61-8.57,9.67-8.57,1.15,0,2.44,.28,3.9,.86,.52-.4,1.16-.62,1.83-.62h7.2c1.66,0,3,1.34,3,3v33.54c0,2.75-.58,5.11-1.73,7.03-1.51,2.52-4.81,3.64-10.7,3.64h-8.67Z"/>
    <path d="M221,323.08v-4.92h6.79c1.98,0,2.97-1.03,2.97-3.08-1.1,.84-2.82,1.26-5.17,1.26-1.65,0-3.07-.44-4.28-1.3-1.2-.87-1.81-2.01-1.81-3.41v-24.43c0-3.71,2.22-5.57,6.67-5.57,1.17,0,2.72,.5,4.64,1.49l1.09-1.26h7.2v33.54c0,2.21-.44,4.04-1.31,5.49s-3.58,2.18-8.12,2.18h-8.67Zm9.75-13.27v-21.36c0-1.04-.48-1.55-1.44-1.55s-1.46,.52-1.46,1.55v21.3c0,1.04,.49,1.55,1.46,1.55s1.44-.5,1.44-1.49Z"/>
    <path class="cls-1" d="M252.15,319.34c-11.07,0-12.73-6.38-12.73-10.18v-20.36c0-3.8,1.65-10.18,12.73-10.18s12.81,6.19,12.81,9.88v12.95c0,.19-.02,.37-.05,.54,.03,.18,.05,.36,.05,.54v6.91c0,3.69-1.67,9.88-12.81,9.88Z"/>
    <path d="M261.96,301.46h-11.19v7.94c0,1.15,.48,1.73,1.43,1.73s1.41-.58,1.41-1.73v-6.86h8.35v6.91c0,4.59-3.27,6.88-9.81,6.88s-9.73-2.39-9.73-7.18v-20.36c0-4.79,3.24-7.18,9.73-7.18s9.81,2.29,9.81,6.88v12.95Zm-8.35-5.1v-7.79c0-1.11-.47-1.67-1.41-1.67s-1.43,.56-1.43,1.67v7.79h2.84Z"/>
    <path class="cls-1" d="M287.84,318.88c-.52,0-1.01-.13-1.44-.37-.43,.23-.92,.37-1.44,.37h-8.35c-.52,0-1.01-.13-1.44-.37-.43,.23-.92,.37-1.44,.37h-8.35c-1.66,0-3-1.34-3-3v-34.01c0-1.66,1.34-3,3-3h8.35c.44,0,.87,.1,1.25,.27,1.16-.33,2.48-.5,3.94-.5,1.88,0,3.65,.51,5.27,1.51,1.7-1,3.71-1.51,6.01-1.51,2.05,0,3.99,.61,5.77,1.83,2.1,1.44,3.21,3.55,3.21,6.1v29.33c0,1.66-1.34,3-3,3h-8.35Z"/>
    <path d="M296.19,315.88h-8.35v-27.19c0-1.04-.47-1.55-1.42-1.55s-1.45,.5-1.45,1.49v27.25h-8.35v-27.25c0-1.04-.47-1.55-1.42-1.55s-1.45,.5-1.45,1.49v27.3h-8.35v-34.01h8.35v1.2c1.15-.96,2.88-1.44,5.18-1.44,1.93,0,3.69,.77,5.27,2.31,1.46-1.54,3.47-2.31,6.01-2.31,1.45,0,2.8,.43,4.07,1.3,1.27,.87,1.91,2.08,1.91,3.62v29.33Z"/>
    <path class="cls-1" d="M309.32,319.34c-11.07,0-12.73-6.38-12.73-10.18v-20.36c0-3.8,1.65-10.18,12.73-10.18s12.81,6.19,12.81,9.88v12.95c0,.19-.02,.37-.05,.54,.03,.18,.05,.36,.05,.54v6.91c0,3.69-1.67,9.88-12.81,9.88Z"/>
    <path d="M319.13,301.46h-11.19v7.94c0,1.15,.48,1.73,1.43,1.73s1.41-.58,1.41-1.73v-6.86h8.35v6.91c0,4.59-3.27,6.88-9.81,6.88s-9.73-2.39-9.73-7.18v-20.36c0-4.79,3.24-7.18,9.73-7.18s9.81,2.29,9.81,6.88v12.95Zm-8.35-5.1v-7.79c0-1.11-.47-1.67-1.41-1.67s-1.43,.56-1.43,1.67v7.79h2.84Z"/>
    <path class="cls-1" d="M333.7,318.88c-.53,0-1.02-.14-1.45-.37-.43,.24-.92,.37-1.45,.37h-8.35c-1.66,0-3-1.34-3-3v-34.01c0-1.66,1.34-3,3-3h8.35c.43,0,.83,.09,1.2,.25,1.15-.32,2.47-.48,3.97-.48,2.09,0,4.04,.58,5.8,1.71,2.12,1.37,3.28,3.54,3.28,6.13v29.41c0,1.66-1.34,3-3,3h-8.35Z"/>
    <path d="M342.05,315.88h-8.35v-27.3c0-1.04-.48-1.55-1.45-1.55s-1.45,.5-1.45,1.49v27.36h-8.35v-34.01h8.35v1.14c1.12-.92,2.84-1.38,5.17-1.38,1.51,0,2.9,.41,4.17,1.23,1.27,.82,1.91,2.02,1.91,3.6v29.41Z"/>
    <path class="cls-1" d="M356.61,318.88c-5.03,0-7.89-.94-9.28-3.05-1.09-1.67-1.6-4.27-1.6-8.18v-17.74h-.72c-1.66,0-3-1.34-3-3v-5.04c0-1.66,1.34-3,3-3h.72v-3.86c0-1.66,1.34-3,3-3h8.35c1.66,0,3,1.34,3,3v3.86h1.51c1.66,0,3,1.34,3,3v5.04c0,1.66-1.34,3-3,3h-1.51v17.13c.4,.04,.98,.07,1.8,.07,1.66,0,3,1.34,3,3v5.77c0,1.66-1.34,3-3,3h-5.27Z"/>
    <path d="M361.89,315.88h-5.27c-3.77,0-6.03-.57-6.77-1.7s-1.11-3.31-1.11-6.53v-20.74h-3.72v-5.04h3.72v-6.86h8.35v6.86h4.51v5.04h-4.51v20.68c0,1,.3,1.67,.89,2.01,.6,.34,1.9,.51,3.91,.51v5.77Z"/>
  </g>
</svg>